<svg width="34" height="11" viewBox="0 0 34 11" fill="none" xmlns="http://www.w3.org/2000/svg">
<path d="M0.733672 9V0.599999H3.71567C4.14767 0.599999 4.53767 0.687999 4.88567 0.864C5.23767 1.04 5.51567 1.294 5.71967 1.626C5.92767 1.954 6.03167 2.348 6.03167 2.808C6.03167 3.032 5.99567 3.252 5.92367 3.468C5.85167 3.684 5.74967 3.874 5.61767 4.038C5.48567 4.202 5.32567 4.318 5.13767 4.386C5.39367 4.45 5.60567 4.566 5.77367 4.734C5.94567 4.898 6.08167 5.09 6.18167 5.31C6.28167 5.53 6.35167 5.758 6.39167 5.994C6.43567 6.23 6.45767 6.454 6.45767 6.666C6.45767 7.114 6.34967 7.514 6.13367 7.866C5.91767 8.218 5.62767 8.496 5.26367 8.7C4.90367 8.9 4.50567 9 4.06967 9H0.733672ZM1.98167 7.92H3.94967C4.20567 7.92 4.43767 7.856 4.64567 7.728C4.85767 7.6 5.02567 7.424 5.14967 7.2C5.27367 6.972 5.33567 6.716 5.33567 6.432C5.33567 6.184 5.27367 5.95 5.14967 5.73C5.02567 5.506 4.85767 5.326 4.64567 5.19C4.43767 5.054 4.20567 4.986 3.94967 4.986H1.98167V7.92ZM1.98167 3.924H3.58367C3.91167 3.924 4.19367 3.824 4.42967 3.624C4.66567 3.424 4.78367 3.15 4.78367 2.802C4.78367 2.43 4.66567 2.152 4.42967 1.968C4.19367 1.78 3.91167 1.686 3.58367 1.686H1.98167V3.924ZM7.47195 9V0.599999H12.686V1.848H8.71995V3.876H11.912V5.124H8.71995V7.752H12.686V9H7.47195ZM14.0579 9V0.599999H15.3059V7.752H18.9239V9H14.0579ZM20.2454 9V0.599999H21.4934V7.752H25.1114V9H20.2454ZM28.9891 0.599999H30.4471L33.5011 9H32.1811L31.5991 7.404H27.8371L27.2611 9H25.9351L28.9891 0.599999ZM28.2991 6.156H31.1371L29.7151 2.256L28.2991 6.156Z" fill="#F6F3F1"/>
<path d="M0.0136719 9.75H33.9811V10.05H0.0136719V9.75Z" fill="#F6F3F1"/>
</svg>
